inDegrees=yes
name=ik_S48_A13_T02
DataType=double
version=3
OpenSimVersion=4.3-2021-08-27-4bc7ad9
endheader
time	pelvis_tilt	pelvis_list	pelvis_rotation	pelvis_tx	pelvis_ty	pelvis_tz	hip_flexion_r	hip_adduction_r	hip_rotation_r	knee_angle_r	knee_angle_r_beta	ankle_angle_r	subtalar_angle_r	mtp_angle_r	hip_flexion_l	hip_adduction_l	hip_rotation_l	knee_angle_l	knee_angle_l_beta	ankle_angle_l	subtalar_angle_l	mtp_angle_l	lumbar_extension	lumbar_bending	lumbar_rotation	arm_flex_r	arm_add_r	arm_rot_r	elbow_flex_r	pro_sup_r	wrist_flex_r	wrist_dev_r	arm_flex_l	arm_add_l	arm_rot_l	elbow_flex_l	pro_sup_l	wrist_flex_l	wrist_dev_l
7.799999999999922	-2.184177616654395	-2.344158181404147	32.66402314504607	0	0.9399999999999999	0	24.75287188957553	-8.588916437195188	-7.457281018913653	29.55275103137322	0.5157928085196127	0	0	0	24.75287188957553	-8.588916437195188	-7.457281018913653	29.55275103137322	0.5157928085196127	0	0	0	-1.571425648288338	-1.041768959397484	15.41071095458943	45.9680980284607	-9.595591196525687	4.688341462203239	36.70618768656352	178.23999041724	0	0	97.72989456325686	-48.09383303477659	62.38854409606073	48.39656543629862	71.78182030003417	0	0
7.819999999999921	-2.122855438865828	-2.351264595270989	32.88075629486973	0	0.9399999999999999	0	24.76054774974522	-8.590647508585723	-7.459286729653838	29.55983409807606	0.5159164313547157	0	0	0	24.76054774974522	-8.590647508585723	-7.459286729653838	29.55983409807606	0.5159164313547157	0	0	0	-1.52691498879935	-1.076403704348084	15.33316339398156	48.06769611668577	-8.638706059213366	4.347455739093381	37.65745937665816	177.8214027766912	0	0	97.5189129604845	-47.9753764278629	62.21861114158977	48.77394312608435	71.89129055481673	0	0
7.839999999999921	-2.053283658741081	-2.374123998070953	33.13398368819556	0	0.9399999999999999	0	24.76828676116148	-8.592391731001394	-7.461308437144648	29.56697471063161	0.5160410585544192	0	0	0	24.76828676116148	-8.592391731001394	-7.461308437144648	29.56697471063161	0.5160410585544192	0	0	0	-1.484426396000933	-1.129237133749732	15.25760722444835	50.2225783776134	-7.691112394908954	3.964690185532108	38.36249726104919	177.4827587326338	0	0	97.40640917162061	-47.8189495933132	62.1772892384061	49.0714901440898	72.23723521383636	0	0
7.85999999999992	-1.979751897190766	-2.381868594325516	33.39494408821551	0	0.9399999999999999	0	24.77499539420991	-8.59390137853482	-7.463059521041501	29.57316934840841	0.5161491753795928	0	0	0	24.77499539420991	-8.59390137853482	-7.463059521041501	29.57316934840841	0.5161491753795928	0	0	0	-1.431751618161492	-1.170113250372555	15.16003450789875	52.37341288081426	-6.742057336964199	3.754008632479005	38.9504975830978	177.2861642269386	0	0	97.31246708424709	-47.64182695735273	62.13279637757495	49.15439135031139	72.47849543458602	0	0
7.87999999999992	-1.9231367810686	-2.3943288195733	33.63293147161961	0	0.9399999999999999	0	24.78237023521478	-8.595560919667234	-7.464984715140366	29.57997519568718	0.5162679598229952	0	0	0	24.78237023521478	-8.595560919667234	-7.464984715140366	29.57997519568718	0.5162679598229952	0	0	0	-1.397784471993919	-1.203637060234631	15.00833306749509	54.67115115264208	-5.692203733481358	3.691821203685844	39.41313869703727	177.4512703998834	0	0	97.27721570261912	-47.52378677809611	62.15782988481608	49.17472693028211	72.89124312445941	0	0
7.89999999999992	-1.888895781706263	-2.396913306522853	33.86672343039706	0	0.9399999999999999	0	24.7902631378671	-8.5973363654106	-7.467044932241225	29.5872570303218	0.5163950518129551	0	0	0	24.7902631378671	-8.5973363654106	-7.467044932241225	29.5872570303218	0.5163950518129551	0	0	0	-1.37789971608857	-1.21571694088924	14.83071566991566	56.95013452314674	-4.660230668407185	3.798303190567554	39.62846244411143	177.5857609084264	0	0	97.24449547125202	-47.4412241744696	62.31362018606019	49.19990286594837	72.89578793244122	0	0
7.919999999999919	-1.746622083474089	-2.416328541171954	34.1776888540623	0	0.9399999999999999	0	24.80330990405107	-8.600277695616095	-7.470455748141739	29.59925863682303	0.5166045193619303	0	0	0	24.80330990405107	-8.600277695616095	-7.470455748141739	29.59925863682303	0.5166045193619303	0	0	0	-1.276619088697638	-1.304403418631425	14.6930215868926	59.14715846585903	-3.649691332941612	3.881436834705514	39.64948954096658	177.584469850694	0	0	97.35995056166404	-47.22981765521241	62.76156982450628	49.21417390679967	72.67811282582922	0	0
